<?xml version="1.0" encoding="UTF-8" standalone="no"?>
<svg
   height="653"
   version="1.2"
   width="648"
   id="svg25"
   sodipodi:docname="climate_black_on_transparent.svg"
   inkscape:version="1.3.2 (091e20ef0f, 2023-11-25)"
   xmlns:inkscape="http://www.inkscape.org/namespaces/inkscape"
   xmlns:sodipodi="http://sodipodi.sourceforge.net/DTD/sodipodi-0.dtd"
   xmlns="http://www.w3.org/2000/svg"
   xmlns:svg="http://www.w3.org/2000/svg">
  <sodipodi:namedview
     id="namedview25"
     pagecolor="#ffffff"
     bordercolor="#000000"
     borderopacity="0.25"
     inkscape:showpageshadow="2"
     inkscape:pageopacity="0.0"
     inkscape:pagecheckerboard="0"
     inkscape:deskcolor="#d1d1d1"
     inkscape:zoom="1.3705972"
     inkscape:cx="324.31117"
     inkscape:cy="326.5"
     inkscape:window-width="1920"
     inkscape:window-height="1141"
     inkscape:window-x="0"
     inkscape:window-y="0"
     inkscape:window-maximized="1"
     inkscape:current-layer="svg25" />
  <defs
     id="defs1" />
  <polygon
     fill="#000"
     fill-opacity="0.2"
     points="405,350 404,351 396,351 395,352 393,352 392,353 391,353 389,355 388,355 384,359 384,360 385,361 386,361 387,362 388,362 389,363 393,363 394,364 413,364 414,363 416,363 418,361 418,360 419,359 419,356 418,355 418,354 415,351 412,351 411,350"
     stroke="#000"
     stroke-width="10"
     id="polygon1" />
  <polygon
     fill="#000"
     fill-opacity="0.2"
     points="464,497 465,498 465,499 466,500 466,501 467,502 467,503 468,504 468,505 469,506 469,507 470,508 470,509 471,510 471,511 473,513 473,514 474,515 474,517 475,518 475,519 476,520 476,523 477,524 477,528 476,529 476,530 474,532 474,533 472,535 471,535 469,537 468,537 467,538 466,538 465,539 459,539 458,538 456,538 451,533 451,532 450,531 450,527 449,526 449,524 450,523 450,521 451,520 451,519 452,518 452,517 453,516 453,515 455,513 455,512 456,511 456,510 457,509 457,508 458,507 458,506 460,504 460,503 461,502 461,501 462,500 462,499"
     stroke="#000"
     stroke-width="10"
     id="polygon3" />
  <polygon
     fill="#000"
     fill-opacity="0.2"
     points="500,480 501,481 501,482 502,483 502,484 503,485 503,486 504,487 504,488 505,489 505,490 506,491 506,492 507,493 507,494 509,496 509,497 510,498 510,500 511,501 511,502 512,503 512,506 513,507 513,511 512,512 512,513 510,515 510,516 508,518 507,518 505,520 504,520 503,521 502,521 501,522 495,522 494,521 492,521 487,516 487,515 486,514 486,510 485,509 485,507 486,506 486,504 487,503 487,502 488,501 488,500 489,499 489,498 490,497 490,496 492,494 492,493 493,492 493,491 494,490 494,489 496,487 496,486 497,485 497,484 498,483 498,482"
     stroke="#000"
     stroke-width="10"
     id="polygon4" />
  <polygon
     fill="#000"
     fill-opacity="0.2"
     points="520,436 521,437 521,438 522,439 522,440 523,441 523,442 524,443 524,444 525,445 525,446 526,447 526,448 527,449 527,450 528,451 528,452 530,454 530,456 531,457 531,458 532,459 532,462 533,463 533,467 532,468 532,469 529,472 529,473 528,474 527,474 525,476 524,476 523,477 522,477 521,478 518,478 517,477 512,477 507,472 507,471 506,470 506,466 505,465 505,464 506,463 506,460 507,459 507,458 508,457 508,456 509,455 509,454 510,453 510,452 512,450 512,449 513,448 513,447 514,446 514,445 516,443 516,442 517,441 517,440 518,439 518,438"
     stroke="#000"
     stroke-width="10"
     id="polygon5" />
  <polygon
     fill="#000"
     fill-opacity="0.2"
     points="215,402 216,401 218,401 220,403 220,405 221,406 221,407 222,408 222,409 223,410 223,412 225,414 225,415 226,416 226,417 227,418 227,419 229,421 229,422 231,424 231,425 233,427 233,428 235,430 235,431 237,433 237,434 239,436 239,437 242,440 242,441 246,445 246,446 270,470 271,470 274,473 275,473 280,478 280,479 279,480 276,480 275,479 272,479 271,478 269,478 268,477 266,477 265,476 263,476 262,475 261,475 260,474 258,474 257,473 255,473 254,472 252,472 251,471 249,471 248,470 247,470 246,469 244,469 243,468 242,468 241,467 240,467 239,466 237,466 236,465 235,465 234,464 233,464 232,463 231,463 230,462 229,462 227,460 226,460 224,458 223,458 222,457 221,457 219,455 218,455 216,453 215,453 212,450 211,450 209,448 208,448 205,445 204,445 198,439 197,439 187,429 187,428 182,423 182,422 180,420 183,417 184,417 185,416 186,416 187,415 188,415 189,414 190,414 191,413 192,413 193,412 194,412 195,411 196,411 198,409 200,409 201,408 202,408 203,407 204,407 205,406 206,406 207,405 209,405 210,404 211,404 212,403 213,403 214,402"
     stroke="#000"
     stroke-width="10"
     id="polygon6" />
  <polygon
     fill="#000"
     fill-opacity="0.2"
     points="338,390 339,389 343,389 347,393 347,394 348,395 348,399 347,400 347,403 345,405 345,406 344,407 344,408 343,409 343,410 342,411 342,412 341,413 341,414 340,415 340,417 339,418 339,420 338,421 338,422 337,423 337,425 336,426 336,428 335,429 335,433 334,434 334,438 333,439 333,447 332,448 332,457 331,458 331,481 330,482 330,483 329,484 321,484 320,485 312,485 311,486 310,485 309,485 308,484 308,480 309,479 309,459 310,458 310,450 311,449 311,442 312,441 312,438 313,437 313,434 314,433 314,430 315,429 315,427 316,426 316,424 317,423 317,422 318,421 318,419 319,418 319,416 320,415 320,414 321,413 321,412 322,411 322,410 323,409 323,408 324,407 324,406 325,405 325,404 326,403 326,402 327,401 327,400 328,399 328,398 335,391 336,391 337,390"
     stroke="#000"
     stroke-width="10"
     id="polygon7" />
  <polygon
     fill="#000"
     fill-opacity="0.2"
     points="285,388 286,387 293,387 294,388 294,444 295,445 295,464 294,465 294,468 293,469 290,466 289,466 287,464 286,464 284,462 283,462 278,457 277,457 261,441 261,440 256,435 256,434 253,431 253,430 250,427 250,426 248,424 248,423 246,421 246,420 244,418 244,417 242,415 242,414 240,412 240,411 239,410 239,409 238,408 238,407 237,406 237,405 236,404 236,403 235,402 235,400 234,399 234,397 233,396 234,395 238,395 239,394 243,394 244,393 248,393 249,392 252,392 253,391 259,391 260,390 267,390 268,389 275,389 276,388"
     stroke="#000"
     stroke-width="10"
     id="polygon8" />
  <polygon
     fill="#000"
     fill-opacity="0.2"
     points="214,317 215,316 244,316 245,317 293,317 294,318 293,319 293,322 294,323 294,372 293,373 292,373 291,372 290,373 272,373 271,374 264,374 263,375 255,375 254,376 247,376 246,377 241,377 240,378 237,378 236,379 233,379 232,380 230,380 229,381 226,381 225,380 225,378 224,377 224,376 223,375 223,372 222,371 222,368 221,367 221,364 220,363 220,359 219,358 219,354 218,353 218,349 217,348 217,343 216,342 216,338 215,337 215,329 214,328"
     stroke="#000"
     stroke-width="10"
     id="polygon9" />
  <polygon
     fill="#000"
     fill-opacity="0.2"
     points="139,317 140,316 153,316 154,317 193,317 194,316 198,316 199,317 199,326 200,327 200,337 201,338 201,345 202,346 202,351 203,352 203,356 204,357 204,360 205,361 205,365 206,366 206,368 207,369 207,372 208,373 208,375 209,376 209,378 210,379 210,381 211,382 211,383 212,384 212,385 211,386 210,386 209,387 208,387 207,388 206,388 205,389 204,389 202,391 200,391 199,392 198,392 197,393 196,393 195,394 194,394 193,395 192,395 191,396 190,396 189,397 188,397 187,398 186,398 184,400 183,400 182,401 181,401 180,402 179,402 177,404 176,404 174,406 173,406 171,408 167,404 167,403 165,401 165,400 163,398 163,397 162,396 162,395 161,394 161,393 160,392 160,391 158,389 158,388 157,387 157,386 156,385 156,384 155,383 155,381 154,380 154,379 153,378 153,377 152,376 152,375 151,374 151,373 150,372 150,370 149,369 149,368 148,367 148,365 147,364 147,362 146,361 146,358 145,357 145,355 144,354 144,351 143,350 143,346 142,345 142,342 141,341 141,336 140,335 140,330 139,329"
     stroke="#000"
     stroke-width="10"
     id="polygon10" />
  <polygon
     fill="#000"
     fill-opacity="0.2"
     points="229,232 230,231 234,231 235,232 237,232 238,233 241,233 242,234 245,234 246,235 250,235 251,236 254,236 255,237 258,237 259,238 262,238 263,239 267,239 268,240 272,240 273,241 279,241 280,242 285,242 286,243 292,243 294,245 294,299 295,300 294,301 215,301 214,300 214,297 215,296 215,286 216,285 216,279 217,278 217,274 218,273 218,269 219,268 219,265 220,264 220,261 221,260 221,257 222,256 222,253 223,252 223,249 224,248 224,245 225,244 225,242 226,241 226,239 227,238 227,237 228,236 228,235 229,234"
     stroke="#000"
     stroke-width="10"
     id="polygon11" />
  <polygon
     fill="#000"
     fill-opacity="0.2"
     points="503,211 504,210 505,211 505,219 504,220 504,226 503,227 503,232 502,233 502,236 501,237 501,241 500,242 500,245 499,246 499,250 498,251 498,254 497,255 497,257 496,258 496,261 495,262 495,265 494,266 494,268 493,269 493,273 492,274 492,277 491,278 491,280 490,281 490,284 489,285 489,288 488,289 488,292 487,293 487,296 486,297 486,299 485,300 485,303 484,304 484,306 483,307 483,309 482,310 482,312 481,313 481,315 480,316 480,317 479,318 479,320 478,321 478,323 477,324 477,326 476,327 476,329 475,330 475,332 474,333 474,334 473,335 473,336 472,337 472,339 471,340 471,341 470,342 470,344 469,345 469,346 468,347 468,348 467,349 467,350 466,351 466,352 465,353 465,354 464,355 464,356 462,358 462,359 461,360 461,361 460,362 460,363 458,365 458,366 455,369 455,370 453,372 453,373 450,376 450,377 446,381 446,382 441,387 441,388 438,391 437,391 435,393 435,394 434,395 433,395 433,396 432,397 431,397 429,399 428,399 426,401 425,401 423,403 422,403 420,405 419,405 418,406 417,406 416,407 415,407 414,408 412,408 411,409 410,409 409,410 407,410 406,411 404,411 403,412 401,412 400,413 396,413 395,414 388,414 387,415 372,415 371,414 366,414 365,413 363,413 362,412 360,412 359,411 358,411 357,410 356,410 355,409 354,409 353,408 351,408 350,407 350,406 349,405 350,404 350,403 352,401 352,400 353,399 353,398 355,396 355,394 356,393 356,392 357,391 357,390 359,388 359,386 361,384 361,383 362,382 362,381 363,380 363,379 364,378 364,377 365,376 365,375 366,374 366,373 367,372 367,371 369,369 369,368 372,365 372,364 375,361 375,360 380,355 380,354 383,351 383,350 387,346 387,345 391,341 391,340 394,337 394,336 401,329 401,328 408,321 408,320 422,306 422,305 444,283 444,282 445,281 445,276 444,275 444,274 443,273 442,273 441,274 440,274 438,276 437,276 432,281 431,281 428,284 427,284 422,289 421,289 413,297 412,297 401,308 401,309 389,321 388,321 388,322 387,323 386,323 384,325 382,325 381,324 380,324 378,322 377,322 375,320 374,320 371,317 370,317 369,316 368,316 367,315 364,315 363,316 363,321 366,324 366,325 368,327 369,327 371,329 372,329 373,330 376,330 377,331 377,332 375,334 375,335 366,344 366,345 361,350 361,351 355,357 355,358 347,366 347,367 341,373 341,374 338,377 338,378 335,381 335,382 330,387 326,383 326,382 325,381 325,380 324,379 324,378 323,377 323,376 322,375 322,373 321,372 321,370 320,369 320,366 319,365 319,360 318,359 318,340 319,339 319,332 320,331 320,327 321,326 321,323 322,322 322,320 323,319 323,317 324,316 324,315 325,314 325,312 326,311 326,310 327,309 327,308 328,307 328,306 330,304 330,303 331,302 331,301 333,299 333,298 336,295 336,294 339,291 339,290 352,277 353,277 357,273 358,273 360,271 361,271 364,268 365,268 367,266 368,266 370,264 371,264 373,262 374,262 375,261 376,261 377,260 378,260 380,258 381,258 382,257 383,257 385,255 386,255 387,254 388,254 389,253 390,253 391,252 392,252 393,251 394,251 395,250 396,250 397,249 398,249 399,248 400,248 401,247 403,247 404,246 405,246 406,245 408,245 409,244 411,244 412,243 413,243 414,242 416,242 417,241 419,241 420,240 421,240 422,239 424,239 425,238 427,238 428,237 430,237 431,236 433,236 434,235 436,235 437,234 438,234 439,233 441,233 442,232 445,232 446,231 448,231 449,230 451,230 452,229 454,229 455,228 458,228 459,227 461,227 462,226 464,226 465,225 468,225 469,224 471,224 472,223 474,223 475,222 478,222 479,221 481,221 482,220 484,220 485,219 486,219 487,218 489,218 490,217 491,217 492,216 493,216 494,215 495,215 496,214 498,214 500,212 501,212 502,211"
     stroke="#000"
     stroke-width="10"
     id="polygon12" />
  <polygon
     fill="#000"
     fill-opacity="0.2"
     points="175,208 178,208 179,209 181,209 182,210 183,210 184,211 185,211 187,213 188,213 189,214 190,214 191,215 192,215 193,216 194,216 195,217 197,217 198,218 199,218 200,219 201,219 202,220 203,220 204,221 206,221 207,222 208,222 209,223 211,223 212,224 214,224 215,225 215,227 214,228 214,230 213,231 213,233 212,234 212,236 211,237 211,239 210,240 210,242 209,243 209,245 208,246 208,248 207,249 207,251 206,252 206,255 205,256 205,260 204,261 204,265 203,266 203,271 202,272 202,277 201,278 201,286 200,287 200,300 199,301 156,301 155,302 141,302 140,301 140,294 141,293 141,288 142,287 142,283 143,282 143,278 144,277 144,274 145,273 145,270 146,269 146,267 147,266 147,264 148,263 148,261 149,260 149,258 150,257 150,255 151,254 151,252 152,251 152,250 153,249 153,247 154,246 154,245 155,244 155,243 156,242 156,240 157,239 157,238 158,237 158,236 159,235 159,234 161,232 161,231 162,230 162,229 163,228 163,227 165,225 165,224 167,222 167,221 169,219 169,218 170,217 170,216 171,215 171,214 172,213 172,211"
     stroke="#000"
     stroke-width="10"
     id="polygon13" />
  <polygon
     fill="#000"
     fill-opacity="0.2"
     points="420,185 421,184 424,184 425,185 427,185 431,189 431,191 432,192 432,204 431,205 431,207 429,209 429,210 428,211 427,211 425,213 421,213 420,212 419,212 416,209 416,208 415,207 415,203 414,202 414,191 415,190 415,189 419,185"
     stroke="#000"
     stroke-width="10"
     id="polygon14" />
  <polygon
     fill="#000"
     fill-opacity="0.2"
     points="379,169 380,168 384,168 389,173 389,174 390,175 390,176 391,177 391,179 390,180 390,181 388,183 388,184 381,191 380,191 378,193 376,193 375,194 373,194 372,193 371,193 367,189 367,188 366,187 366,181 368,179 368,178 374,172 375,172 378,169"
     stroke="#000"
     stroke-width="10"
     id="polygon15" />
  <polygon
     fill="#000"
     fill-opacity="0.2"
     points="462,168 463,167 468,167 470,169 471,169 477,175 477,176 479,178 479,179 480,180 480,181 481,182 481,187 480,188 480,189 476,193 475,193 474,194 473,194 472,193 470,193 469,192 468,192 462,186 462,185 457,180 457,179 456,178 456,175 457,174 457,173 458,172 458,171 461,168"
     stroke="#000"
     stroke-width="10"
     id="polygon16" />
  <polygon
     fill="#000"
     fill-opacity="0.2"
     points="293,155 294,156 294,223 295,224 295,226 294,227 282,227 281,226 273,226 272,225 267,225 266,224 262,224 261,223 257,223 256,222 252,222 251,221 248,221 247,220 244,220 243,219 240,219 239,218 238,218 237,217 237,216 238,215 238,214 239,213 239,212 241,210 241,209 242,208 242,207 244,205 244,204 245,203 245,202 248,199 248,198 251,195 251,194 258,187 258,186 261,183 262,183 262,182 275,169 276,169 282,163 283,163 285,161 286,161 289,158 290,158"
     stroke="#000"
     stroke-width="10"
     id="polygon17" />
  <polygon
     fill="#000"
     fill-opacity="0.2"
     points="276,144 277,143 280,143 281,144 280,145 279,145 267,157 266,157 247,176 247,177 242,182 242,183 238,187 238,188 234,192 234,193 232,195 232,196 230,198 230,199 229,200 229,201 228,202 228,203 227,204 227,205 226,206 226,207 224,209 224,210 222,212 219,212 218,211 216,211 215,210 214,210 213,209 212,209 211,208 210,208 209,207 208,207 207,206 206,206 205,205 204,205 203,204 202,204 201,203 200,203 198,201 197,201 195,199 194,199 190,195 189,195 188,194 189,193 189,192 203,178 204,178 209,173 210,173 213,170 214,170 216,168 217,168 219,166 220,166 222,164 223,164 224,163 225,163 226,162 227,162 228,161 229,161 230,160 231,160 232,159 233,159 234,158 235,158 236,157 237,157 238,156 239,156 240,155 241,155 242,154 243,154 244,153 245,153 246,152 248,152 249,151 251,151 252,150 253,150 254,149 256,149 257,148 259,148 260,147 262,147 263,146 266,146 267,145 270,145 271,144"
     stroke="#000"
     stroke-width="10"
     id="polygon18" />
  <polygon
     fill="#000"
     fill-opacity="0.2"
     points="478,129 479,128 489,128 490,129 492,129 496,133 496,134 497,135 497,140 496,141 496,142 492,146 491,146 490,147 486,147 485,148 482,148 481,147 477,147 472,142 472,141 471,140 471,136 472,135 472,133 476,129"
     stroke="#000"
     stroke-width="10"
     id="polygon19" />
  <polygon
     fill="#000"
     fill-opacity="0.2"
     points="355,129 356,128 367,128 368,129 369,129 373,133 373,134 374,135 374,138 373,139 373,142 368,147 365,147 364,148 357,148 356,147 354,147 348,141 348,139 347,138 347,137 348,136 348,134 353,129"
     stroke="#000"
     stroke-width="10"
     id="polygon20" />
  <polygon
     fill="#000"
     fill-opacity="0.2"
     points="420,101 421,100 426,100 427,101 432,101 433,102 435,102 436,103 438,103 439,104 440,104 441,105 442,105 443,106 444,106 452,114 452,115 454,117 454,118 455,119 455,120 456,121 456,122 457,123 457,125 458,126 458,130 459,131 459,141 458,142 458,146 457,147 457,149 456,150 456,152 455,153 455,154 453,156 453,157 445,165 444,165 441,168 440,168 439,169 438,169 437,170 435,170 434,171 432,171 431,172 425,172 424,173 420,173 419,172 414,172 413,171 411,171 410,170 409,170 408,169 407,169 406,168 405,168 404,167 403,167 402,166 401,166 396,161 396,160 393,157 393,156 391,154 391,153 390,152 390,151 389,150 389,148 388,147 388,145 387,144 387,128 388,127 388,125 389,124 389,122 391,120 391,119 392,118 392,117 395,114 395,113 399,109 400,109 404,105 405,105 406,104 407,104 408,103 410,103 411,102 413,102 414,101"
     stroke="#000"
     stroke-width="10"
     id="polygon21" />
  <polygon
     fill="#000"
     fill-opacity="0.2"
     points="281,86 282,85 304,85 306,87 306,88 307,89 307,91 308,92 308,110 307,111 307,112 304,115 302,115 301,116 298,116 297,117 288,117 287,118 280,118 279,119 275,119 274,120 270,120 269,121 266,121 265,122 262,122 261,123 258,123 257,124 254,124 253,125 251,125 250,126 248,126 247,127 245,127 244,128 243,128 242,129 240,129 239,130 238,130 237,131 235,131 234,132 233,132 232,133 230,133 229,134 228,134 227,135 226,135 225,136 224,136 223,137 222,137 221,138 220,138 219,139 218,139 217,140 216,140 214,142 213,142 212,143 211,143 209,145 208,145 206,147 205,147 204,148 203,148 200,151 199,151 195,155 194,155 188,161 187,161 180,168 179,168 178,169 178,170 166,182 166,183 162,187 162,188 157,193 157,194 154,197 154,198 152,200 152,201 150,203 150,204 149,205 149,206 147,208 147,209 146,210 146,211 144,213 144,214 143,215 143,216 141,218 141,219 140,220 140,221 139,222 139,223 138,224 138,225 137,226 137,227 136,228 136,229 135,230 135,231 134,232 134,233 133,234 133,235 132,236 132,237 131,238 131,240 130,241 130,242 129,243 129,245 128,246 128,247 127,248 127,250 126,251 126,253 125,254 125,257 124,258 124,260 123,261 123,264 122,265 122,267 121,268 121,271 120,272 120,276 119,277 119,281 118,282 118,286 117,287 117,292 116,293 116,301 115,302 115,325 116,326 116,334 117,335 117,340 118,341 118,345 119,346 119,350 120,351 120,355 121,356 121,359 122,360 122,363 123,364 123,367 124,368 124,369 125,370 125,372 126,373 126,375 127,376 127,378 128,379 128,381 129,382 129,383 130,384 130,385 131,386 131,388 132,389 132,390 133,391 133,392 134,393 134,394 135,395 135,396 136,397 136,398 137,399 137,400 139,402 139,403 141,405 141,406 142,407 142,408 144,410 144,411 145,412 145,413 146,414 146,415 148,417 148,418 150,420 150,421 153,424 153,425 156,428 156,429 161,434 161,435 168,442 168,443 179,454 180,454 185,459 186,459 190,463 191,463 195,467 196,467 198,469 199,469 202,472 203,472 205,474 206,474 208,476 209,476 211,478 212,478 213,479 214,479 216,481 217,481 218,482 219,482 220,483 221,483 222,484 223,484 224,485 225,485 226,486 227,486 228,487 229,487 230,488 231,488 232,489 234,489 235,490 236,490 237,491 238,491 239,492 241,492 242,493 243,493 244,494 246,494 247,495 248,495 249,496 251,496 252,497 255,497 256,498 259,498 260,499 262,499 263,500 266,500 267,501 270,501 271,502 275,502 276,503 280,503 281,504 287,504 288,505 298,505 299,506 324,506 325,505 334,505 335,504 340,504 341,503 346,503 347,502 350,502 351,501 354,501 355,500 358,500 359,499 362,499 363,498 366,498 367,497 370,497 371,496 373,496 374,495 376,495 377,494 378,494 379,493 381,493 382,492 383,492 384,491 386,491 387,490 388,490 389,489 390,489 391,488 393,488 394,487 395,487 397,485 398,485 399,484 400,484 401,483 402,483 403,482 404,482 405,481 406,481 408,479 409,479 411,477 412,477 413,476 414,476 416,474 417,474 420,471 421,471 423,469 424,469 427,466 428,466 432,462 433,462 438,457 439,457 451,445 451,444 459,436 459,435 463,431 463,430 466,427 466,426 468,424 468,423 470,421 470,420 472,418 472,417 474,415 474,414 475,413 475,412 477,410 477,409 478,408 478,407 480,405 480,404 481,403 481,402 482,401 482,400 483,399 483,398 484,397 484,396 485,395 485,394 486,393 486,392 487,391 487,390 488,389 488,388 489,387 489,385 490,384 490,383 491,382 491,380 492,379 492,378 493,377 493,375 494,374 494,372 495,371 495,369 496,368 496,366 497,365 497,362 498,361 498,359 499,358 499,355 500,354 500,351 501,350 501,346 502,345 502,341 503,340 503,335 504,334 504,328 505,327 505,316 506,315 506,312 507,311 507,310 508,309 509,309 510,308 511,308 512,307 513,307 514,306 530,306 531,307 533,307 534,308 535,308 538,311 538,312 539,313 539,321 538,322 538,331 537,332 537,341 536,342 536,347 535,348 535,352 534,353 534,356 533,357 533,360 532,361 532,365 531,366 531,370 530,371 530,373 529,374 529,376 528,377 528,379 527,380 527,382 526,383 526,385 525,386 525,388 524,389 524,391 523,392 523,394 522,395 522,396 521,397 521,398 520,399 520,401 519,402 519,403 518,404 518,405 517,406 517,407 516,408 516,409 515,410 515,411 514,412 514,413 513,414 513,415 512,416 512,417 510,419 510,420 509,421 509,422 507,424 507,425 506,426 506,427 505,428 505,429 503,431 503,432 501,434 501,435 499,437 499,438 497,440 497,441 495,443 495,444 493,446 493,447 490,450 490,451 484,457 484,458 479,463 479,464 460,483 459,483 454,488 453,488 449,492 448,492 445,495 444,495 441,498 440,498 438,500 437,500 435,502 434,502 433,503 432,503 430,505 429,505 428,506 427,506 425,508 424,508 423,509 422,509 420,511 419,511 418,512 417,512 416,513 415,513 414,514 413,514 412,515 411,515 410,516 409,516 408,517 407,517 406,518 405,518 404,519 403,519 402,520 401,520 400,521 399,521 398,522 396,522 395,523 393,523 392,524 391,524 390,525 388,525 387,526 385,526 384,527 382,527 381,528 379,528 378,529 376,529 375,530 372,530 371,531 369,531 368,532 364,532 363,533 359,533 358,534 353,534 352,535 346,535 345,536 337,536 336,537 326,537 325,538 292,538 291,537 281,537 280,536 274,536 273,535 268,535 267,534 263,534 262,533 259,533 258,532 255,532 254,531 252,531 251,530 248,530 247,529 244,529 243,528 241,528 240,527 238,527 237,526 235,526 234,525 233,525 232,524 230,524 229,523 228,523 227,522 225,522 224,521 223,521 222,520 220,520 219,519 218,519 217,518 216,518 215,517 214,517 213,516 212,516 211,515 210,515 209,514 208,514 207,513 206,513 205,512 204,512 202,510 201,510 200,509 199,509 197,507 196,507 194,505 193,505 191,503 190,503 189,502 188,502 186,500 185,500 183,498 182,498 179,495 178,495 176,493 175,493 172,490 171,490 166,485 165,485 159,479 158,479 136,457 136,456 132,452 132,451 129,448 129,447 125,443 125,442 123,440 123,439 120,436 120,435 118,433 118,432 115,429 115,428 114,427 114,426 112,424 112,423 111,422 111,421 109,419 109,418 108,417 108,416 107,415 107,414 105,412 105,411 104,410 104,409 103,408 103,407 102,406 102,405 101,404 101,403 100,402 100,401 99,400 99,399 98,398 98,396 97,395 97,394 96,393 96,392 95,391 95,390 94,389 94,387 93,386 93,385 92,384 92,382 91,381 91,379 90,378 90,376 89,375 89,372 88,371 88,369 87,368 87,365 86,364 86,360 85,359 85,355 84,354 84,350 83,349 83,342 82,341 82,330 81,329 81,305 82,304 82,296 83,295 83,288 84,287 84,281 85,280 85,274 86,273 86,269 87,268 87,264 88,263 88,260 89,259 89,256 90,255 90,253 91,252 91,249 92,248 92,246 93,245 93,243 94,242 94,240 95,239 95,237 96,236 96,235 97,234 97,232 98,231 98,230 99,229 99,227 100,226 100,225 101,224 101,222 102,221 102,220 103,219 103,218 104,217 104,216 105,215 105,214 106,213 106,212 107,211 107,210 108,209 108,208 109,207 109,206 110,205 110,204 111,203 111,202 113,200 113,199 114,198 114,197 116,195 116,194 117,193 117,192 119,190 119,189 121,187 121,186 123,184 123,183 126,180 126,179 129,176 129,175 133,171 133,170 138,165 138,164 145,157 145,156 162,139 163,139 171,131 172,131 176,127 177,127 179,125 180,125 183,122 184,122 186,120 187,120 189,118 190,118 192,116 193,116 194,115 195,115 197,113 198,113 200,111 201,111 202,110 203,110 204,109 205,109 206,108 207,108 208,107 209,107 210,106 211,106 212,105 213,105 214,104 215,104 216,103 218,103 219,102 220,102 221,101 222,101 223,100 225,100 226,99 227,99 228,98 230,98 231,97 233,97 234,96 236,96 237,95 240,95 241,94 243,94 244,93 246,93 247,92 250,92 251,91 254,91 255,90 257,90 258,89 262,89 263,88 266,88 267,87 273,87 274,86"
     stroke="#000"
     stroke-width="10"
     id="polygon22" />
  <polygon
     fill="#000"
     fill-opacity="0.2"
     points="471,81 473,81 474,82 476,82 480,86 480,87 481,88 481,93 480,94 480,95 478,97 478,98 471,105 470,105 468,107 465,107 464,108 463,107 462,107 457,102 457,100 456,99 456,95 460,91 460,90 461,89 462,89 468,83 469,83"
     stroke="#000"
     stroke-width="10"
     id="polygon23" />
  <polygon
     fill="#000"
     fill-opacity="0.2"
     points="374,82 375,81 376,81 377,82 379,82 381,84 382,84 388,90 388,91 390,93 390,95 391,96 391,98 390,99 390,100 384,106 383,106 382,107 380,107 379,106 378,106 376,104 375,104 372,101 372,100 369,97 369,96 368,95 368,94 367,93 367,92 366,91 366,90 367,89 367,87 372,82"
     stroke="#000"
     stroke-width="10"
     id="polygon24" />
  <polygon
     fill="#000"
     fill-opacity="0.2"
     points="420,60 427,60 431,64 431,66 432,67 432,80 431,81 431,83 426,88 420,88 419,87 418,87 416,85 416,84 415,83 415,79 414,78 414,68 415,67 415,65"
     stroke="#000"
     stroke-width="10"
     id="polygon25" />
</svg>
